<svg xmlns="http://www.w3.org/2000/svg" viewBox="0 0 251 59">
  <g fill="none" fill-rule="evenodd">
    <path d="M75.605 32.584l-2.157 7.374h-18.42v-.503c1.014 0 1.686-.592 2.018-1.77.221-.78.331-2.111.331-3.989V22.871c0-1.018-.073-1.778-.22-2.278-.258-.8-.747-1.289-1.465-1.468v-.51h16.705l1.327 5.788h-.61c-2.288-3.095-4.91-4.642-7.862-4.642h-2.824v8.35h1.717c3.287 0 5.272-1.19 5.955-3.573h.528v8.293h-.444c-.296-1.262-1.1-2.195-2.41-2.795-1.016-.481-2.225-.72-3.629-.72h-1.717v4.856c0 1.617.203 2.746.609 3.386.498.758 1.459 1.138 2.88 1.138 1.697 0 3.431-.678 5.203-2.038 1.44-1.097 2.778-2.526 4.015-4.283l.47.21M90.742 31.503c0-2.1-.24-3.855-.72-5.275-.72-2.058-1.884-3.088-3.489-3.088-1.623 0-2.788 1.03-3.49 3.088-.462 1.4-.693 3.157-.693 5.275 0 5.418 1.385 8.126 4.155 8.126 2.824 0 4.237-2.708 4.237-8.126zm4.506-.002c0 2.56-.757 4.627-2.27 6.207-1.403 1.479-3.303 2.377-5.702 2.698v.12c1.107.22 2.886.9 5.338 2.04.996.458 1.669.688 2.02.688l.331-.06.138.422c-.57.24-1.424.6-2.558 1.08-1.134.48-2.032.721-2.696.721-.443 0-1.494-.556-3.153-1.666-1.66-1.108-2.656-1.663-2.987-1.663-.573 0-1.125.309-1.66.929l-.194-1.141c1.29-.62 2.361-1.088 3.21-1.41-2.213-.5-3.947-1.5-5.2-2.997-1.347-1.6-2.02-3.589-2.02-5.968 0-2.738.812-4.962 2.434-6.671 1.624-1.71 3.699-2.564 6.226-2.564 2.528 0 4.615.855 6.267 2.564 1.65 1.709 2.476 3.933 2.476 6.67zM114.423 23.288c-.789.26-1.393 1.009-1.816 2.248-.33.939-.495 1.969-.495 3.086v4.646c0 2.478-.553 4.297-1.661 5.457-1.108 1.16-2.814 1.74-5.12 1.74-1.867 0-3.407-.35-4.625-1.05-1.55-.88-2.326-2.239-2.326-4.077v-9.022c0-.92-.037-1.53-.11-1.83-.145-.678-.506-1.078-1.074-1.198v-.42h7.03v.419c-1.125.2-1.69 1.21-1.69 3.027v7.58c0 3.578 1.21 5.364 3.628 5.364 1.863 0 3.203-.557 4.014-1.677.72-.98 1.08-2.506 1.08-4.586v-4.314c0-3.156-.862-4.954-2.584-5.394v-.42h5.749v.421M123.564 39.958h-7.415v-.503c.789 0 1.312-.451 1.568-1.351.186-.64.276-1.75.276-3.33v-9.266c0-.82-.12-1.38-.358-1.68-.129-.18-.424-.36-.884-.54v-.42h6.386v.42c-.493.16-.816.4-.97.719-.156.321-.233.79-.233 1.41v9.357c0 1.661.082 2.79.248 3.39.24.859.7 1.29 1.382 1.29v.504M142.274 27.701h-.524a12.305 12.305 0 00-2.052-2.403c-1.012-.92-1.889-1.381-2.626-1.381-.814 0-1.22.557-1.22 1.672v9.314c0 1.334.056 2.28.168 2.837.26 1.195.805 1.792 1.642 1.792h.056v.426h-7.965v-.426c1.347.039 2.023-1.49 2.023-4.586v-9.35c0-1.12-.408-1.68-1.22-1.68-.72 0-1.587.461-2.604 1.382a13.03 13.03 0 00-2.075 2.403h-.47l1.16-4.833h14.488l1.22 4.833M161.305 23.347c-1.516.62-2.865 1.891-4.044 3.81l-3.102 5.037v2.757c0 3.052.605 4.58 1.824 4.58v.427h-7.575v-.426c.816 0 1.34-.6 1.582-1.798.111-.52.165-1.447.165-2.783v-2.367l-3.239-5.393A20.021 20.021 0 00145.45 25c-.774-1.02-1.42-1.591-1.935-1.71v-.421h7.885v.33c-.888.221-1.33.65-1.33 1.29 0 .262.127.651.387 1.172.092.2.405.71.938 1.53l2.346 3.645 1.77-3.02c.796-1.358 1.196-2.368 1.196-3.028 0-.82-.512-1.32-1.54-1.499v-.42h6.138v.48M188.39 33.87c0-3.218-2.29-4.827-6.867-4.827h-1.193v4.648c0 2.1.12 3.399.36 3.9.406.88 1.432 1.317 3.075 1.317 1.498 0 2.643-.433 3.435-1.302.796-.871 1.19-2.114 1.19-3.735zm-1.516-10.033v-.12c0-1.659-.598-2.778-1.802-3.357-.81-.4-2.097-.6-3.854-.6h-.888v8.275h.888c1.702 0 2.985-.24 3.854-.72 1.204-.66 1.802-1.82 1.802-3.478zm6.879 10.485c0 2.898-1.928 4.677-5.781 5.337-1.14.198-2.452.299-3.926.299h-10.922v-.503c.853 0 1.465-.812 1.836-2.431.24-1.04.36-2.208.36-3.508V22.993c0-2.3-.492-3.59-1.476-3.868v-.51h10.21c5.404 0 8.105 1.558 8.105 4.677 0 1.778-.673 3.078-2.022 3.897-.923.56-2.306.968-4.15 1.229 1.987.04 3.673.458 5.056 1.257 1.806 1.04 2.71 2.589 2.71 4.647zM203.888 32.288l-1.993-4.853-2.118 4.853h4.111zm8.77 7.67h-7.691v-.419c.368-.098.606-.18.718-.238.35-.184.525-.54.525-1.079 0-.281-.077-.65-.226-1.11-.074-.239-.26-.719-.56-1.438l-1.147-2.513h-4.855l-.906 2.09c-.372 1.12-.552 1.85-.552 2.189 0 1.12.594 1.818 1.778 2.1v.418h-5.653V39.6c.442-.082 1.005-.551 1.689-1.41.646-.78 1.197-1.688 1.658-2.727l5.503-12.108c.275-.623.472-.934.583-.934.186 0 .395.35.636 1.053l6.03 12.946c.848 1.82 1.675 2.83 2.47 3.03v.508zM232.325 23.288c-.843.26-1.487 1-1.93 2.218-.331.94-.496 1.988-.496 3.148v10.939c0 .58-.185.871-.554.871-.13 0-.389-.23-.776-.69l-11.392-13.723v8.243c0 3.116.777 4.885 2.33 5.306v.358h-5.65v-.3c.826-.26 1.46-1.018 1.902-2.279.35-.998.525-2.008.525-3.028v-6.926c0-1.378-.074-2.289-.222-2.728-.239-.74-.79-1.21-1.655-1.409v-.42h5.455l9.105 10.196v-4.407c0-3.14-.758-4.93-2.271-5.368v-.421h5.629v.42M250.578 39.942h-5.445c-.164 0-.266-.06-.303-.18l-2.1-5.61c-.331-.879-.58-1.457-.745-1.739-.405-.66-.866-.99-1.383-.99-.607 0-.909.461-.909 1.38v2.042c0 1.46.037 2.391.109 2.79.183 1.202.672 1.804 1.463 1.804v.503h-7.238v-.503c1.098 0 1.648-1.58 1.648-4.736v-8.42c0-.978-.03-1.598-.082-1.857-.147-.68-.514-1.059-1.103-1.14v-.418h6.406v.419c-.585.16-.948.55-1.094 1.17-.072.28-.109.888-.109 1.828v4.253l3.645-3.864c.221-.24.46-.584.718-1.034.258-.449.387-.814.387-1.095 0-.679-.366-1.078-1.103-1.198v-.48h6.404v.54c-.7.32-1.299.629-1.796.928-1.104.699-2.034 1.408-2.79 2.126l-4.142 3.954c1.603.02 2.852.333 3.745.942.893.611 1.708 1.694 2.446 3.251.607 1.3.994 2.098 1.159 2.397.737 1.358 1.473 2.25 2.212 2.666v.27M42.82 19.241H22.663l-2.363 8.447h20.159l2.363-8.447" fill="#1A1919"/>
    <path d="M40.459 28.482H28.73a.794.794 0 010-1.588h11.127l1.918-6.859H36.57a.794.794 0 110-1.588h6.25a.794.794 0 01.764 1.007l-2.361 8.448a.795.795 0 01-.765.58" fill="#FFFFFE"/>
    <path fill="#1A1919" d="M38.23 31.499H18.07l-2.362 8.446h20.159l2.362-8.446"/>
    <path d="M35.868 40.738h-5.333a.794.794 0 110-1.587h4.73l1.919-6.859H23.286a.794.794 0 010-1.587H38.23a.794.794 0 01.765 1.007l-2.363 8.446a.793.793 0 01-.764.58" fill="#FFFFFE"/>
    <path d="M45.196 2.044C45.179 2.027 43.47.36 39.866.36c-4.942 0-13.335 3.178-25.25 18.314C7.584 27.61 1.735 42.993 4.235 51.65c.815 2.82 2.449 4.684 4.827 5.527.08.043 2 1.035 5.066 1.035 6.171 0 15.231-3.886 23.344-22.396a.234.234 0 00-.38-.26c-.902.902-1.835 1.902-2.823 2.96-5.07 5.43-11.379 12.188-19.737 12.189h-.001c-.208 0-.415-.004-.62-.013-.013-.001-1.259-.091-2.017-1.522-1.363-2.573-1.05-8.894 8.18-24.394C31.433 5.702 38.454 3.642 40.944 3.642c1.065 0 1.636.34 1.767.47.628.628.817 1.844.546 3.517-1.023 6.339-8.908 18.916-22.59 25.786l-1.869 1.007a.234.234 0 00.104.44c.208.006.416.01.623.01 11.428 0 21.86-10.293 25.872-19.976 2.32-5.6 2.245-10.405-.201-12.852" fill="#F6BE5A"/>
    <path fill="#1A1919" d="M18.212 31.499H3.156L.794 39.945H15.85l2.362-8.446"/>
    <path d="M30.74 40.738H.794A.793.793 0 01.03 39.73l2.382-8.446a.793.793 0 01.764-.578h22.19l-2.6 1.587H3.775l-1.934 6.859H30.74v1.587" fill="#FFFFFE"/>
    <path fill="#1A1919" d="M23.273 19.241H7.747l-2.363 8.447H20.44l2.833-8.447"/>
    <path d="M28.46 28.482H5.384a.793.793 0 01-.764-1.01l2.383-8.447a.794.794 0 01.764-.578H36.7v1.588H8.368l-1.935 6.859h23.96l-1.933 1.588" fill="#FFFFFE"/>
  </g>
</svg>
